<svg width="176" height="40" viewBox="0 0 176 40" fill="none" xmlns="http://www.w3.org/2000/svg">
<path d="M66.2914 13.04V27H63.4914V17.92L59.7514 27H57.6314L53.8714 17.92V27H51.0714V13.04H54.2514L58.6914 23.42L63.1314 13.04H66.2914ZM79.6597 15.92L72.7997 32.24H69.8197L72.2197 26.72L67.7797 15.92H70.9197L73.7797 23.66L76.6797 15.92H79.6597ZM94.5547 13.04V15.3H88.7347V18.88H93.1947V21.1H88.7347V27H85.9347V13.04H94.5547ZM97.9602 14.6C97.4668 14.6 97.0535 14.4467 96.7202 14.14C96.4002 13.82 96.2402 13.4267 96.2402 12.96C96.2402 12.4933 96.4002 12.1067 96.7202 11.8C97.0535 11.48 97.4668 11.32 97.9602 11.32C98.4535 11.32 98.8602 11.48 99.1802 11.8C99.5135 12.1067 99.6802 12.4933 99.6802 12.96C99.6802 13.4267 99.5135 13.82 99.1802 14.14C98.8602 14.4467 98.4535 14.6 97.9602 14.6ZM99.3402 15.92V27H96.5402V15.92H99.3402ZM108.247 15.76C109.567 15.76 110.633 16.18 111.447 17.02C112.26 17.8467 112.667 19.0067 112.667 20.5V27H109.867V20.88C109.867 20 109.647 19.3267 109.207 18.86C108.767 18.38 108.167 18.14 107.407 18.14C106.633 18.14 106.02 18.38 105.567 18.86C105.127 19.3267 104.907 20 104.907 20.88V27H102.107V15.92H104.907V17.3C105.28 16.82 105.753 16.4467 106.327 16.18C106.913 15.9 107.553 15.76 108.247 15.76ZM114.609 21.42C114.609 20.3 114.829 19.3067 115.269 18.44C115.723 17.5733 116.329 16.9067 117.089 16.44C117.863 15.9733 118.723 15.74 119.669 15.74C120.496 15.74 121.216 15.9067 121.829 16.24C122.456 16.5733 122.956 16.9933 123.329 17.5V15.92H126.149V27H123.329V25.38C122.969 25.9 122.469 26.3333 121.829 26.68C121.203 27.0133 120.476 27.18 119.649 27.18C118.716 27.18 117.863 26.94 117.089 26.46C116.329 25.98 115.723 25.3067 115.269 24.44C114.829 23.56 114.609 22.5533 114.609 21.42ZM123.329 21.46C123.329 20.78 123.196 20.2 122.929 19.72C122.663 19.2267 122.303 18.8533 121.849 18.6C121.396 18.3333 120.909 18.2 120.389 18.2C119.869 18.2 119.389 18.3267 118.949 18.58C118.509 18.8333 118.149 19.2067 117.869 19.7C117.603 20.18 117.469 20.7533 117.469 21.42C117.469 22.0867 117.603 22.6733 117.869 23.18C118.149 23.6733 118.509 24.0533 118.949 24.32C119.403 24.5867 119.883 24.72 120.389 24.72C120.909 24.72 121.396 24.5933 121.849 24.34C122.303 24.0733 122.663 23.7 122.929 23.22C123.196 22.7267 123.329 22.14 123.329 21.46ZM135.024 15.76C136.344 15.76 137.411 16.18 138.224 17.02C139.037 17.8467 139.444 19.0067 139.444 20.5V27H136.644V20.88C136.644 20 136.424 19.3267 135.984 18.86C135.544 18.38 134.944 18.14 134.184 18.14C133.411 18.14 132.797 18.38 132.344 18.86C131.904 19.3267 131.684 20 131.684 20.88V27H128.884V15.92H131.684V17.3C132.057 16.82 132.531 16.4467 133.104 16.18C133.691 15.9 134.331 15.76 135.024 15.76ZM141.387 21.46C141.387 20.3133 141.62 19.3133 142.087 18.46C142.553 17.5933 143.2 16.9267 144.027 16.46C144.853 15.98 145.8 15.74 146.867 15.74C148.24 15.74 149.373 16.0867 150.267 16.78C151.173 17.46 151.78 18.42 152.087 19.66H149.067C148.907 19.18 148.633 18.8067 148.247 18.54C147.873 18.26 147.407 18.12 146.847 18.12C146.047 18.12 145.413 18.4133 144.947 19C144.48 19.5733 144.247 20.3933 144.247 21.46C144.247 22.5133 144.48 23.3333 144.947 23.92C145.413 24.4933 146.047 24.78 146.847 24.78C147.98 24.78 148.72 24.2733 149.067 23.26H152.087C151.78 24.46 151.173 25.4133 150.267 26.12C149.36 26.8267 148.227 27.18 146.867 27.18C145.8 27.18 144.853 26.9467 144.027 26.48C143.2 26 142.553 25.3333 142.087 24.48C141.62 23.6133 141.387 22.6067 141.387 21.46ZM164.438 21.22C164.438 21.62 164.411 21.98 164.358 22.3H156.258C156.324 23.1 156.604 23.7267 157.098 24.18C157.591 24.6333 158.198 24.86 158.918 24.86C159.958 24.86 160.698 24.4133 161.138 23.52H164.158C163.838 24.5867 163.224 25.4667 162.318 26.16C161.411 26.84 160.298 27.18 158.978 27.18C157.911 27.18 156.951 26.9467 156.098 26.48C155.258 26 154.598 25.3267 154.118 24.46C153.651 23.5933 153.418 22.5933 153.418 21.46C153.418 20.3133 153.651 19.3067 154.118 18.44C154.584 17.5733 155.238 16.9067 156.078 16.44C156.918 15.9733 157.884 15.74 158.978 15.74C160.031 15.74 160.971 15.9667 161.798 16.42C162.638 16.8733 163.284 17.52 163.738 18.36C164.204 19.1867 164.438 20.14 164.438 21.22ZM161.538 20.42C161.524 19.7 161.264 19.1267 160.758 18.7C160.251 18.26 159.631 18.04 158.898 18.04C158.204 18.04 157.618 18.2533 157.138 18.68C156.671 19.0933 156.384 19.6733 156.278 20.42H161.538ZM170.722 27.18C169.815 27.18 169.002 27.02 168.282 26.7C167.562 26.3667 166.988 25.92 166.562 25.36C166.148 24.8 165.922 24.18 165.882 23.5H168.702C168.755 23.9267 168.962 24.28 169.322 24.56C169.695 24.84 170.155 24.98 170.702 24.98C171.235 24.98 171.648 24.8733 171.942 24.66C172.248 24.4467 172.402 24.1733 172.402 23.84C172.402 23.48 172.215 23.2133 171.842 23.04C171.482 22.8533 170.902 22.6533 170.102 22.44C169.275 22.24 168.595 22.0333 168.062 21.82C167.542 21.6067 167.088 21.28 166.702 20.84C166.328 20.4 166.142 19.8067 166.142 19.06C166.142 18.4467 166.315 17.8867 166.662 17.38C167.022 16.8733 167.528 16.4733 168.182 16.18C168.848 15.8867 169.628 15.74 170.522 15.74C171.842 15.74 172.895 16.0733 173.682 16.74C174.468 17.3933 174.902 18.28 174.982 19.4H172.302C172.262 18.96 172.075 18.6133 171.742 18.36C171.422 18.0933 170.988 17.96 170.442 17.96C169.935 17.96 169.542 18.0533 169.262 18.24C168.995 18.4267 168.862 18.6867 168.862 19.02C168.862 19.3933 169.048 19.68 169.422 19.88C169.795 20.0667 170.375 20.26 171.162 20.46C171.962 20.66 172.622 20.8667 173.142 21.08C173.662 21.2933 174.108 21.6267 174.482 22.08C174.868 22.52 175.068 23.1067 175.082 23.84C175.082 24.48 174.902 25.0533 174.542 25.56C174.195 26.0667 173.688 26.4667 173.022 26.76C172.368 27.04 171.602 27.18 170.722 27.18Z" fill="white"/>
<path d="M34.1422 5.85781C30.3647 2.08031 25.3422 0 20 0C14.6578 0 9.63531 2.08031 5.85781 5.85781C2.08031 9.63531 0 14.6578 0 20C0 25.3422 2.08039 30.3646 5.85781 34.1422C9.63523 37.9198 14.6578 40 20 40C25.3422 40 30.3647 37.9197 34.1422 34.1422C37.9197 30.3647 40 25.3422 40 20C40 14.6578 37.9196 9.63539 34.1422 5.85781Z" fill="#33CC95"/>
<g clip-path="url(#clip0_35212_417)">
<path d="M20.5714 8V33.1429" stroke="white" stroke-width="2" stroke-linecap="round" stroke-linejoin="round"/>
<path d="M26.2857 12.5714H17.7143C16.6534 12.5714 15.636 12.9929 14.8859 13.743C14.1357 14.4931 13.7143 15.5106 13.7143 16.5714C13.7143 17.6323 14.1357 18.6497 14.8859 19.3999C15.636 20.15 16.6534 20.5714 17.7143 20.5714H23.4286C24.4894 20.5714 25.5069 20.9929 26.257 21.743C27.0072 22.4932 27.4286 23.5106 27.4286 24.5714C27.4286 25.6323 27.0072 26.6497 26.257 27.3999C25.5069 28.15 24.4894 28.5714 23.4286 28.5714H13.7143" stroke="white" stroke-width="2" stroke-linecap="round" stroke-linejoin="round"/>
</g>
<defs>
<clipPath id="clip0_35212_417">
<rect width="27.4286" height="27.4286" fill="white" transform="translate(6.85715 6.85714)"/>
</clipPath>
</defs>
</svg>
